<?xml version="1.0" standalone="no"?>
<!DOCTYPE svg PUBLIC "-//W3C//DTD SVG 20010904//EN"
 "http://www.w3.org/TR/2001/REC-SVG-20010904/DTD/svg10.dtd">
<svg version="1.0" xmlns="http://www.w3.org/2000/svg"
 width="512.000000pt" height="512.000000pt" viewBox="0 0 512.000000 512.000000"
 preserveAspectRatio="xMidYMid meet">
<metadata>
Created by potrace 1.11, written by Peter Selinger 2001-2013
</metadata>
<g transform="translate(0.000000,512.000000) scale(0.100000,-0.100000)"
fill="#000000" stroke="none">
<path d="M320 4466 c-138 -39 -249 -141 -295 -271 -21 -59 -28 -172 -14 -235
37 -166 190 -306 356 -328 32 -4 553 -6 1158 -6 l1100 1 67 22 c182 60 300
231 292 422 -5 116 -56 223 -143 302 -46 41 -82 62 -159 88 -52 18 -105 19
-1186 18 -873 -1 -1141 -4 -1176 -13z"/>
<path d="M4595 4468 c-90 -29 -147 -63 -383 -231 -37 -26 -78 -55 -92 -65 -14
-9 -101 -71 -195 -136 -93 -66 -206 -144 -250 -175 -126 -88 -1092 -763 -1174
-822 l-74 -52 -1041 -2 c-1147 -1 -1073 3 -1183 -62 -49 -29 -126 -111 -153
-163 -54 -105 -62 -245 -20 -353 43 -113 151 -215 267 -253 56 -18 107 -19
1198 -19 1049 0 1144 2 1196 17 44 14 226 137 855 577 439 308 936 655 1104
773 168 117 326 234 352 261 81 82 119 186 114 311 -6 160 -96 294 -245 363
-63 30 -86 35 -160 38 -47 2 -99 -1 -116 -7z"/>
<path d="M3955 2549 c-118 -29 -231 -122 -284 -232 -36 -75 -42 -103 -42 -186
1 -101 27 -173 109 -301 19 -30 44 -71 55 -90 10 -19 65 -110 121 -202 55 -92
106 -176 111 -186 6 -10 80 -134 165 -277 168 -281 217 -342 311 -387 73 -36
129 -47 213 -44 116 5 208 48 292 134 93 96 134 258 100 393 -13 48 -54 125
-164 309 -81 135 -149 250 -152 255 -32 66 -401 662 -425 688 -46 48 -112 92
-170 111 -60 21 -186 29 -240 15z"/>
<path d="M410 1492 c-62 -6 -139 -26 -182 -48 -67 -34 -149 -119 -182 -190
-38 -79 -41 -94 -40 -199 1 -82 4 -97 36 -165 52 -109 131 -182 243 -226 48
-18 87 -19 1210 -19 l1160 0 58 24 c196 79 308 290 261 493 -39 165 -180 300
-339 323 -45 7 -2164 14 -2225 7z"/>
</g>
</svg>
